<?xml version="1.0" encoding="UTF-8"?>
<svg width="132px" height="132px" viewBox="0 0 132 132" version="1.1" xmlns="http://www.w3.org/2000/svg" xmlns:xlink="http://www.w3.org/1999/xlink">
    <!-- Generator: Sketch 46.2 (44496) - http://www.bohemiancoding.com/sketch -->
    <title>icon_profile_user_gray</title>
    <desc>Created with Sketch.</desc>
    <defs></defs>
    <g id="main" stroke="none" stroke-width="1" fill="none" fill-rule="evenodd">
        <path d="M108.250034,91.0858667 C106.924807,87.3830222 105.292552,85.7188444 103.250271,84.3607111 C102.246787,83.6928889 98.5182993,82.2848889 92.947639,80.2129778 C87.8850967,78.3288 82.1486605,76.1923556 80.0906846,75.0268444 C78.2328169,73.9728 76.7996888,69.1181333 76.8428494,67.6016 C76.8624679,67.5292444 77.01353,67.1968 78.0974496,66.0146667 C80.2839264,63.6337778 83.1796103,59.0548444 84.3694696,54.6235556 C85.9909349,48.5779556 87.234745,36.3312889 81.6170004,28.7906667 C78.422135,24.5021333 73.4508186,22.2209778 66.8384183,22.0107556 L66.3420714,22 C59.5570288,22.2209778 54.5837505,24.5031111 51.3879042,28.7926222 C45.7691787,36.3371556 47.0159315,48.5799111 48.6383778,54.6255111 C49.8262752,59.0528889 52.7131308,63.6259556 54.8937221,66.0009778 C55.2645109,66.4038222 56.0158977,67.2241778 56.176769,67.6759111 C56.7555135,69.3029333 54.6524151,74.0412444 52.9171628,75.0268444 C50.8631105,76.1913778 45.1237316,78.3268444 39.988601,80.2384 C34.4552158,82.2985778 30.7522324,83.6977778 29.7556149,84.3607111 C27.7143147,85.7168889 26.0830402,87.3791111 24.7568326,91.0839111 C23.7219591,93.9654222 23.2167839,100.192889 23.0470843,102.736089 L23,103.444 L23.5159654,103.932889 C25.0177581,105.355556 32.5571303,110 66.5029428,110 C100.176059,110 107.900825,105.306667 109.466378,103.869333 L110,103.378489 L109.951935,102.655911 C109.781254,100.132267 109.27706,93.9507556 108.250034,91.0858667 Z" id="Shape-3" fill="#73767D"></path>
    </g>
</svg>